# xmcd
#
# Track frame offsets:
#	150
#	24832
#	48725
#	72497
#	98554
#	134555
#	152768
#	186956
#	191976
#	211080
#	242395
#	263492
#	278554
#	308455
#
# Disc length: 4406 seconds
#
# Revision: 0
# Processed by: cddbd v1.5.2PL0 Copyright (c) Steve Scherf et al.
# Submitted via: audiograbber 1.83.01
#
DISCID=bb11340e
DTITLE=Within Temptation - Mother Earth [CD-R]
DYEAR=2003
DGENRE=Symphonic Metal
TTITLE0=Mother Earth
TTITLE1=Ice Queen
TTITLE2=Our Farewell
TTITLE3=Caged
TTITLE4=The Promise
TTITLE5=Never-Ending Story
TTITLE6=Deceiver Of Fools
TTITLE7=Intro
TTITLE8=Dark Wings
TTITLE9=In Perfect Harmony
TTITLE10=Restless [bonus track]
TTITLE11=Bittersweet [bonus track]
TTITLE12=Enter [live at Utrecht 1998] [bonus track]
TTITLE13=The Dance [live at Utrecht 1998] [bonus track]
EXTD=
EXTT0=
EXTT1=
EXTT2=
EXTT3=
EXTT4=
EXTT5=
EXTT6=
EXTT7=
EXTT8=
EXTT9=
EXTT10=
EXTT11=
EXTT12=
EXTT13=
PLAYORDER=
